Coordinates
version=1
nRows=5
nColumns=40
inDegrees=yes

Units are S.I. units (second, meters, Newtons, ...)
Angles are in degrees.

endheader
time	pelvis_tilt	pelvis_list	pelvis_rotation	pelvis_tx	pelvis_ty	pelvis_tz	hip_flexion_r	hip_adduction_r	hip_rotation_r	knee_angle_r	knee_angle_r_beta	ankle_angle_r	subtalar_angle_r	mtp_angle_r	hip_flexion_l	hip_adduction_l	hip_rotation_l	knee_angle_l	knee_angle_l_beta	ankle_angle_l	subtalar_angle_l	mtp_angle_l	lumbar_extension	lumbar_bending	lumbar_rotation	arm_flex_r	arm_add_r	arm_rot_r	elbow_flex_r	pro_sup_r	wrist_flex_r	wrist_dev_r	arm_flex_l	arm_add_l	arm_rot_l	elbow_flex_l	pro_sup_l	wrist_flex_l	wrist_dev_l
     33.64000000	     -7.39999267	     -4.92147068	     -0.40939663	      1.07909052	      0.92909326	      0.40190045	     33.15994184	     -4.59638582	     -8.11716235	     68.76805677	     68.76805677	      3.41179764	    -17.79384312	      4.04173748	     17.87043755	     -5.40739294	     -7.61171557	     22.05388482	     22.05388482	     13.86376845	     -9.30693261	     -0.69023647	    -11.66408322	      4.71705054	      1.42582053	      4.26181345	    -13.80317649	      2.92806740	     35.77257483	     45.91775739	      0.00000000	      0.00000000	      2.20144961	    -14.25234885	    -11.44449401	     53.57717258	     46.15651385	      0.00000000	      0.00000000
     33.65242857	     -7.40882476	     -5.00016285	     -0.71561855	      1.07888525	      0.92935708	      0.40228152	     34.29227126	     -4.43155131	     -7.83908784	     67.70411348	     67.70411348	      3.27027072	    -17.60657629	      3.90728909	     17.08542781	     -5.56241703	     -7.92216295	     21.69357729	     21.69357729	     14.17974389	     -9.09961861	     -0.83624503	    -11.80127832	      4.89424873	      1.57464174	      2.89497609	    -14.16757933	      2.84839832	     34.33646746	     45.96850826	      0.00000000	      0.00000000	      2.61162276	    -14.47114447	    -11.68631502	     54.69277291	     46.21052679	      0.00000000	      0.00000000
     33.66485714	     -7.41365008	     -5.09004578	     -1.01345862	      1.07868793	      0.92956373	      0.40267927	     35.30128360	     -4.24635352	     -7.60260139	     66.44842477	     66.44842477	      3.02982866	    -17.43490549	      3.66044284	     16.30210841	     -5.71132966	     -8.17808900	     21.33157140	     21.33157140	     14.46464118	     -8.98549431	     -0.95048452	    -11.94672083	      5.07539408	      1.68277418	      1.65289338	    -14.46515415	      2.61243006	     32.68148522	     46.04010874	      0.00000000	      0.00000000	      2.85754882	    -14.71773083	    -11.89276939	     56.21063688	     46.26759305	      0.00000000	      0.00000000
     33.67728571	     -7.48884351	     -5.15478797	     -1.25879974	      1.07841871	      0.92952749	      0.40304951	     36.29417495	     -4.12603155	     -7.44628744	     65.03707509	     65.03707509	      2.87105985	    -17.13529479	      3.73814589	     15.70699450	     -5.81151321	     -8.31481590	     21.14252646	     21.14252646	     14.76735723	     -9.02162012	     -1.01956481	    -11.97577245	      5.26375980	      1.27638027	      0.52815333	    -14.76816765	      2.52617504	     31.99600937	     46.06478433	      0.00000000	      0.00000000	      3.05615941	    -15.21147422	    -12.07441997	     56.65627029	     46.29406698	      0.00000000	      0.00000000
     33.68971429	     -7.48005295	     -5.22672032	     -1.55713658	      1.07824523	      0.92966090	      0.40358043	     36.99576497	     -3.95553738	     -7.29878287	     63.21819092	     63.21819092	      2.10373806	    -17.09065493	      2.25738613	     14.84550561	     -5.92647716	     -8.59569490	     20.62929865	     20.62929865	     14.95850663	     -8.87425530	     -1.25823304	    -12.15666787	      5.35560464	      0.88725262	      0.98278761	    -14.28038512	     -0.17827249	     27.10281167	     46.45475832	      0.00000000	      0.00000000	      2.19169939	    -15.47548591	    -13.09177930	     60.58812538	     46.55661910	      0.00000000	      0.00000000
